<svg width="156" height="67" viewBox="0 0 156 67" fill="none" xmlns="http://www.w3.org/2000/svg">
<path id="F" d="M24.8772 66.1801C16.9611 65.7837 11.7779 64.3301 9.32768 61.8192C6.87746 59.3084 5.65234 55.5422 5.65234 50.5206C5.65234 44.9703 7.53713 37.9665 11.3067 29.509C15.0763 21.0515 20.9191 9.22425 28.8352 -5.9728C29.9661 -7.82288 31.4739 -10.598 33.3587 -14.2981C28.6468 -14.0339 21.3903 -13.4392 11.5894 -12.5141L1.97701 -11.523C2.73092 -20.2448 15.0763 -24.87 39.0131 -25.3986C51.2642 -49.0532 62.196 -67.8843 71.8084 -81.892C66.908 -82.1563 63.2326 -82.2884 60.7824 -82.2884C48.7197 -82.2884 39.39 -81.4295 32.7933 -79.7115C26.385 -77.9936 21.8615 -75.4167 19.2228 -71.9809C16.7726 -68.545 15.5475 -63.9198 15.5475 -58.1053C15.5475 -52.6872 16.7726 -47.4674 19.2228 -42.4457C6.78322 -43.8994 0.563416 -49.0531 0.563416 -57.9071C0.563416 -64.6466 3.95604 -70.6594 10.7413 -75.9453C17.715 -81.2312 27.1389 -85.3278 39.0131 -88.2351C50.8873 -91.2745 63.9865 -92.7942 78.3109 -92.7942C85.2846 -92.7942 95.1798 -92.2656 107.996 -91.2084C109.881 -91.0763 113.651 -90.812 119.305 -90.4155C124.959 -90.0191 130.048 -89.8209 134.572 -89.8209C142.111 -89.8209 149.085 -90.4816 155.493 -91.8031C148.896 -86.5172 143.242 -82.8831 138.53 -80.9009C133.818 -78.9187 128.823 -77.9275 123.546 -77.9275C119.965 -77.9275 113.556 -78.3901 104.321 -79.3151C99.609 -79.9758 92.6353 -80.6366 83.3998 -81.2973C78.1224 -72.3112 69.0755 -53.6123 56.2589 -25.2004C65.3059 -24.8039 73.7874 -24.2093 81.7035 -23.4164C93.5777 -22.6235 101.588 -22.161 105.735 -22.0288C103.661 -19.9145 101.117 -18.3947 98.1012 -17.4697C95.274 -16.6768 90.7505 -16.1482 84.5307 -15.8839C78.4994 -15.6196 67.6619 -15.3553 52.0181 -15.091L39.5785 14.4441C30.1546 36.645 25.2541 53.8904 24.8772 66.1801Z" fill="#F2AA4C"/>
</svg>
