<svg width="524" height="32" viewBox="0 0 524 32" fill="none" xmlns="http://www.w3.org/2000/svg">
<path id="keybord" d="M509.027 5.36396H465.689V0.969995C465.689 0.728669 465.412 0.533051 465.07 0.533051H450.211C449.869 0.533051 449.592 0.728669 449.592 0.969995V5.36396H440.305V0.969995C440.305 0.728669 440.028 0.533051 439.686 0.533051H424.827C424.485 0.533051 424.208 0.728669 424.208 0.969995V5.36396H414.921V0.969995C414.921 0.728669 414.644 0.533051 414.302 0.533051H399.443C399.102 0.533051 398.824 0.728669 398.824 0.969995V5.36396H389.538V0.969995C389.538 0.728669 389.26 0.533051 388.919 0.533051H374.06C373.718 0.533051 373.441 0.728669 373.441 0.969995V5.36396H364.154V0.969995C364.154 0.728669 363.877 0.533051 363.535 0.533051H348.676C348.334 0.533051 348.057 0.728669 348.057 0.969995V5.36396H338.77V0.969995C338.77 0.728669 338.493 0.533051 338.151 0.533051H323.292C322.95 0.533051 322.673 0.728669 322.673 0.969995V5.36396H313.386V0.969995C313.386 0.728669 313.109 0.533051 312.767 0.533051H196.373C196.031 0.533051 195.754 0.728669 195.754 0.969995V5.36396H186.468V0.969995C186.468 0.728669 186.19 0.533051 185.849 0.533051H170.99C170.648 0.533051 170.371 0.728669 170.371 0.969995V5.36396H161.084V0.969995C161.084 0.728669 160.807 0.533051 160.465 0.533051H145.606C145.264 0.533051 144.987 0.728669 144.987 0.969995V5.36396H135.7V0.969995C135.7 0.728669 135.423 0.533051 135.081 0.533051H120.222C119.88 0.533051 119.603 0.728669 119.603 0.969995V5.36396H110.316V0.969995C110.316 0.728669 110.039 0.533051 109.697 0.533051H94.8384C94.4965 0.533051 94.2193 0.728669 94.2193 0.969995V5.36396H84.9326V0.969995C84.9326 0.728669 84.6554 0.533051 84.3135 0.533051H69.4546C69.1127 0.533051 68.8355 0.728669 68.8355 0.969995V5.36396H59.5488V0.969995C59.5488 0.728669 59.2716 0.533051 58.9297 0.533051H44.0709C43.7289 0.533051 43.4518 0.728669 43.4518 0.969995V5.36396H14.9724C6.76615 5.36396 0.113647 10.0589 0.113647 15.8505V20.5923C0.113647 26.3838 6.76614 31.0788 14.9724 31.0788H509.027C517.233 31.0788 523.886 26.3838 523.886 20.5923V15.8505C523.886 10.059 517.233 5.36396 509.027 5.36396Z" fill="#153758"/>
</svg>
