 <svg id="logo" width="1023" height="215" viewBox="0 0 1023 215" fill="none" xmlns="http://www.w3.org/2000/svg">
            <path
                d="M79.36 112.632L46.672 175.128V213H33.568V175.128L0.735992 112.632H15.28L40.048 163.464L64.816 112.632H79.36Z"
                stroke="#0C4071" stroke-width="3" class="y" />
            <path
                d="M138.686 214.008C129.374 214.008 120.878 211.848 113.198 207.528C105.518 203.112 99.4217 197.016 94.9097 189.24C90.4937 181.368 88.2857 172.536 88.2857 162.744C88.2857 152.952 90.4937 144.168 94.9097 136.392C99.4217 128.52 105.518 122.424 113.198 118.104C120.878 113.688 129.374 111.48 138.686 111.48C148.094 111.48 156.638 113.688 164.318 118.104C171.998 122.424 178.046 128.472 182.462 136.248C186.878 144.024 189.086 152.856 189.086 162.744C189.086 172.632 186.878 181.464 182.462 189.24C178.046 197.016 171.998 203.112 164.318 207.528C156.638 211.848 148.094 214.008 138.686 214.008ZM138.686 202.632C145.694 202.632 151.982 201 157.55 197.736C163.214 194.472 167.63 189.816 170.798 183.768C174.062 177.72 175.694 170.712 175.694 162.744C175.694 154.68 174.062 147.672 170.798 141.72C167.63 135.672 163.262 131.016 157.694 127.752C152.126 124.488 145.79 122.856 138.686 122.856C131.582 122.856 125.246 124.488 119.678 127.752C114.11 131.016 109.694 135.672 106.43 141.72C103.262 147.672 101.678 154.68 101.678 162.744C101.678 170.712 103.262 177.72 106.43 183.768C109.694 189.816 114.11 194.472 119.678 197.736C125.342 201 131.678 202.632 138.686 202.632Z"
                stroke="#0C4071" stroke-width="3" class="o" />
            <path
                d="M219.201 112.632V176.136C219.201 185.064 221.361 191.688 225.681 196.008C230.097 200.328 236.193 202.488 243.969 202.488C251.649 202.488 257.649 200.328 261.969 196.008C266.385 191.688 268.593 185.064 268.593 176.136V112.632H281.697V175.992C281.697 184.344 280.017 191.4 276.657 197.16C273.297 202.824 268.737 207.048 262.977 209.832C257.313 212.616 250.929 214.008 243.825 214.008C236.721 214.008 230.289 212.616 224.529 209.832C218.865 207.048 214.353 202.824 210.993 197.16C207.729 191.4 206.097 184.344 206.097 175.992V112.632H219.201Z"
                stroke="#0C4071" stroke-width="3" class="u" />
            <path
                d="M335.381 214.008C328.757 214.008 322.805 212.856 317.525 210.552C312.341 208.152 308.261 204.888 305.285 200.76C302.309 196.536 300.773 191.688 300.677 186.216H314.645C315.125 190.92 317.045 194.904 320.405 198.168C323.861 201.336 328.853 202.92 335.381 202.92C341.621 202.92 346.517 201.384 350.069 198.312C353.717 195.144 355.541 191.112 355.541 186.216C355.541 182.376 354.485 179.256 352.373 176.856C350.261 174.456 347.621 172.632 344.453 171.384C341.285 170.136 337.013 168.792 331.637 167.352C325.013 165.624 319.685 163.896 315.653 162.168C311.717 160.44 308.309 157.752 305.429 154.104C302.645 150.36 301.253 145.368 301.253 139.128C301.253 133.656 302.645 128.808 305.429 124.584C308.213 120.36 312.101 117.096 317.093 114.792C322.181 112.488 327.989 111.336 334.517 111.336C343.925 111.336 351.605 113.688 357.557 118.392C363.605 123.096 367.013 129.336 367.781 137.112H353.381C352.901 133.272 350.885 129.912 347.333 127.032C343.781 124.056 339.077 122.568 333.221 122.568C327.749 122.568 323.285 124.008 319.829 126.888C316.373 129.672 314.645 133.608 314.645 138.696C314.645 142.344 315.653 145.32 317.669 147.624C319.781 149.928 322.325 151.704 325.301 152.952C328.373 154.104 332.645 155.448 338.117 156.984C344.741 158.808 350.069 160.632 354.101 162.456C358.133 164.184 361.589 166.92 364.469 170.664C367.349 174.312 368.789 179.304 368.789 185.64C368.789 190.536 367.493 195.144 364.901 199.464C362.309 203.784 358.469 207.288 353.381 209.976C348.293 212.664 342.293 214.008 335.381 214.008Z"
                stroke="#0C4071" stroke-width="3" class="s" />
            <path
                d="M419.896 214.008C413.272 214.008 407.32 212.856 402.04 210.552C396.856 208.152 392.776 204.888 389.8 200.76C386.824 196.536 385.288 191.688 385.192 186.216H399.16C399.64 190.92 401.56 194.904 404.92 198.168C408.376 201.336 413.368 202.92 419.896 202.92C426.136 202.92 431.032 201.384 434.584 198.312C438.232 195.144 440.056 191.112 440.056 186.216C440.056 182.376 439 179.256 436.888 176.856C434.776 174.456 432.136 172.632 428.968 171.384C425.8 170.136 421.528 168.792 416.152 167.352C409.528 165.624 404.2 163.896 400.168 162.168C396.232 160.44 392.824 157.752 389.944 154.104C387.16 150.36 385.768 145.368 385.768 139.128C385.768 133.656 387.16 128.808 389.944 124.584C392.728 120.36 396.616 117.096 401.608 114.792C406.696 112.488 412.504 111.336 419.032 111.336C428.44 111.336 436.12 113.688 442.072 118.392C448.12 123.096 451.528 129.336 452.296 137.112H437.896C437.416 133.272 435.4 129.912 431.848 127.032C428.296 124.056 423.592 122.568 417.736 122.568C412.264 122.568 407.8 124.008 404.344 126.888C400.888 129.672 399.16 133.608 399.16 138.696C399.16 142.344 400.168 145.32 402.184 147.624C404.296 149.928 406.84 151.704 409.816 152.952C412.888 154.104 417.16 155.448 422.632 156.984C429.256 158.808 434.584 160.632 438.616 162.456C442.648 164.184 446.104 166.92 448.984 170.664C451.864 174.312 453.304 179.304 453.304 185.64C453.304 190.536 452.008 195.144 449.416 199.464C446.824 203.784 442.984 207.288 437.896 209.976C432.808 212.664 426.808 214.008 419.896 214.008Z"
                stroke="#0C4071" stroke-width="3" class="s" />
            <path d="M602.8 3.89998V26.1H511.9V96.6H585.7V118.8H511.9V213H484.6V3.89998H602.8Z" stroke="#0C4071"
                stroke-width="6" />
            <path
                d="M334.192 12.288V45.84H370.768V56.64H334.192V91.2H375.088V102H321.088V1.48798H375.088V12.288H334.192Z"
                stroke="#0C4071" stroke-width="3" class="e" />
            <path d="M408.02 91.344H443.156V102H394.916V1.63198H408.02V91.344Z" stroke="#0C4071" stroke-width="3"
                class="l" />
            <path
                d="M669.963 79.68H626.187L618.123 102H604.299L640.587 2.20798H655.707L691.851 102H678.027L669.963 79.68ZM666.219 69.024L648.075 18.336L629.931 69.024H666.219Z"
                stroke="#0C4071" stroke-width="3" />
            <path
                d="M788.162 121.008L768.146 100.992C763.25 102.336 758.258 103.008 753.17 103.008C743.858 103.008 735.362 100.848 727.682 96.528C720.002 92.112 713.906 86.016 709.394 78.24C704.978 70.368 702.77 61.536 702.77 51.744C702.77 41.952 704.978 33.168 709.394 25.392C713.906 17.52 720.002 11.424 727.682 7.10398C735.362 2.68798 743.858 0.47998 753.17 0.47998C762.578 0.47998 771.122 2.68798 778.802 7.10398C786.482 11.424 792.53 17.472 796.946 25.248C801.362 33.024 803.57 41.856 803.57 51.744C803.57 61.344 801.458 69.984 797.234 77.664C793.01 85.344 787.202 91.392 779.81 95.808L805.154 121.008H788.162ZM716.162 51.744C716.162 59.712 717.746 66.72 720.914 72.768C724.178 78.816 728.594 83.472 734.162 86.736C739.826 90 746.162 91.632 753.17 91.632C760.178 91.632 766.466 90 772.034 86.736C777.698 83.472 782.114 78.816 785.282 72.768C788.546 66.72 790.178 59.712 790.178 51.744C790.178 43.68 788.546 36.672 785.282 30.72C782.114 24.672 777.746 20.016 772.178 16.752C766.61 13.488 760.274 11.856 753.17 11.856C746.066 11.856 739.73 13.488 734.162 16.752C728.594 20.016 724.178 24.672 720.914 30.72C717.746 36.672 716.162 43.68 716.162 51.744Z"
                stroke="#0C4071" stroke-width="3" />
            <path
                d="M833.966 1.63198V65.136C833.966 74.064 836.126 80.688 840.446 85.008C844.862 89.328 850.958 91.488 858.734 91.488C866.414 91.488 872.414 89.328 876.734 85.008C881.15 80.688 883.359 74.064 883.359 65.136V1.63198H896.463V64.992C896.463 73.344 894.782 80.4 891.422 86.16C888.062 91.824 883.502 96.048 877.742 98.832C872.078 101.616 865.695 103.008 858.591 103.008C851.487 103.008 845.054 101.616 839.294 98.832C833.63 96.048 829.118 91.824 825.758 86.16C822.494 80.4 820.862 73.344 820.862 64.992V1.63198H833.966Z"
                stroke="#0C4071" stroke-width="3" />
            <path d="M931.426 1.63198V102H918.322V1.63198H931.426Z" stroke="#0C4071" stroke-width="3" />
            <path
                d="M1006.61 102L982.704 60.96H966.864V102H953.76V1.63198H986.16C993.744 1.63198 1000.13 2.92798 1005.31 5.51998C1010.59 8.11198 1014.53 11.616 1017.12 16.032C1019.71 20.448 1021.01 25.488 1021.01 31.152C1021.01 38.064 1018.99 44.16 1014.96 49.44C1011.02 54.72 1005.07 58.224 997.104 59.952L1022.3 102H1006.61ZM966.864 50.448H986.16C993.264 50.448 998.592 48.72 1002.14 45.264C1005.7 41.712 1007.47 37.008 1007.47 31.152C1007.47 25.2 1005.7 20.592 1002.14 17.328C998.688 14.064 993.36 12.432 986.16 12.432H966.864V50.448Z"
                stroke="#0C4071" stroke-width="3" />
        </svg>




