<?xml version="1.0" standalone="no"?>
<!DOCTYPE svg PUBLIC "-//W3C//DTD SVG 20010904//EN"
 "http://www.w3.org/TR/2001/REC-SVG-20010904/DTD/svg10.dtd">
<svg version="1.0" xmlns="http://www.w3.org/2000/svg"
 width="700.000000pt" height="700.000000pt" viewBox="0 0 700.000000 700.000000"
 preserveAspectRatio="xMidYMid meet">
<metadata>
Created by potrace 1.11, written by Peter Selinger 2001-2013
</metadata>
<g transform="translate(0.000000,700.000000) scale(0.100000,-0.100000)"
fill="#000000" stroke="none">
<path d="M3317 6884 c-1 -1 -49 -5 -107 -9 -57 -4 -107 -8 -110 -10 -3 -2 -30
-6 -60 -10 -45 -5 -131 -19 -241 -40 -15 -3 -34 -8 -159 -41 -113 -31 -224
-69 -395 -135 -76 -29 -301 -140 -380 -186 -68 -41 -217 -135 -225 -143 -3 -3
-27 -21 -55 -39 -27 -19 -52 -37 -55 -41 -3 -3 -31 -25 -64 -49 -32 -24 -66
-51 -76 -60 -9 -9 -43 -39 -76 -68 -149 -130 -323 -316 -446 -479 -53 -69
-188 -263 -188 -269 0 -3 -15 -29 -34 -58 -40 -62 -181 -336 -215 -417 -86
-206 -177 -482 -204 -625 -4 -16 -13 -61 -22 -100 -14 -67 -30 -162 -41 -250
-3 -22 -7 -49 -9 -60 -24 -115 -24 -672 -1 -815 3 -14 7 -47 11 -75 8 -69 23
-157 41 -240 8 -38 16 -80 19 -92 4 -22 2 -24 -148 -157 -70 -63 -89 -86 -69
-86 4 0 25 16 47 36 48 44 80 72 210 188 55 49 116 103 135 120 19 18 96 86
170 151 74 66 137 122 140 125 3 3 43 39 90 80 46 41 91 82 100 90 9 8 29 25
43 37 l27 23 0 -513 0 -513 -67 -2 c-129 -4 -188 -57 -179 -162 5 -59 24 -85
80 -110 34 -16 80 -18 440 -18 220 0 414 -1 429 -1 l28 -1 -36 -31 c-61 -54
-124 -183 -204 -417 -104 -303 -322 -556 -508 -590 -156 -28 -236 30 -240 174
-2 92 13 156 93 389 36 104 67 213 71 242 9 90 -30 163 -111 205 -48 25 -190
34 -266 17 -52 -12 -151 -54 -195 -84 -131 -87 -201 -224 -162 -317 19 -44 48
-65 111 -77 l47 -9 -7 31 c-32 146 51 334 171 391 81 39 182 19 218 -42 38
-66 26 -155 -50 -377 -95 -278 -113 -371 -92 -466 29 -128 177 -190 369 -153
152 29 269 105 389 254 25 30 48 59 53 65 4 5 2 -13 -6 -40 -8 -28 -31 -111
-50 -185 -66 -251 -75 -279 -131 -390 -80 -158 -155 -246 -250 -291 -94 -44
-196 -54 -290 -29 -93 26 -140 114 -116 220 5 24 8 46 6 48 -10 10 -103 -49
-123 -78 -71 -106 33 -222 221 -246 229 -28 404 26 551 171 135 132 185 244
387 875 109 341 164 465 271 610 55 73 53 80 -25 112 l-42 17 65 1 c36 1 552
2 1147 3 l1083 2 -39 -35 c-43 -39 -162 -145 -195 -173 -12 -10 -55 -49 -96
-86 -41 -37 -201 -179 -355 -316 -154 -137 -293 -261 -310 -276 -16 -15 -57
-51 -90 -80 -147 -131 -233 -207 -275 -245 -120 -107 -135 -121 -235 -209 -43
-38 -93 -83 -109 -98 -17 -16 -111 -99 -209 -185 -114 -101 -172 -158 -162
-160 14 -3 66 38 179 140 25 23 23 23 87 -6 53 -23 234 -88 336 -120 28 -9 71
-16 94 -16 49 0 48 6 -1 15 -19 3 -55 12 -80 20 -25 8 -88 29 -140 46 -108 36
-242 91 -244 100 0 4 109 105 244 224 134 120 250 223 256 229 6 6 42 38 80
71 38 33 91 81 119 106 27 26 91 82 140 125 50 43 92 81 95 84 3 3 25 23 50
45 25 22 82 72 125 111 44 39 150 133 235 209 85 76 173 154 195 174 22 20 78
70 125 111 47 41 103 92 125 112 22 20 53 46 68 58 l28 22 1034 1 c976 0 1036
1 1074 18 55 24 80 67 77 133 -1 28 -8 61 -14 73 -19 36 -94 65 -167 65 l-64
1 -1 719 c0 564 3 722 12 731 7 7 53 48 103 92 49 44 95 85 101 90 40 37 157
141 176 157 13 11 57 50 98 87 41 38 104 94 140 125 l65 56 17 -82 c23 -112
33 -166 53 -311 27 -197 28 -699 1 -867 -3 -14 -7 -45 -10 -70 -5 -40 -17
-107 -31 -180 -18 -92 -29 -144 -47 -210 -11 -41 -21 -82 -23 -90 -9 -44 -86
-258 -138 -385 -112 -275 -322 -631 -486 -828 -10 -12 -53 -62 -94 -112 -72
-86 -245 -261 -352 -356 -193 -172 -433 -333 -690 -464 -180 -91 -308 -143
-517 -210 -111 -36 -132 -45 -93 -41 28 2 99 21 158 41 528 175 979 458 1362
855 128 132 172 184 298 345 124 159 292 447 397 680 132 290 243 681 276 965
3 30 8 57 9 60 11 18 20 226 20 430 0 209 -7 354 -21 445 -2 17 -6 44 -8 60
-8 61 -18 122 -33 195 -9 41 -19 92 -23 112 l-7 37 105 93 c57 51 116 103 131
115 18 15 23 25 16 32 -7 7 -23 -2 -50 -27 -22 -20 -76 -68 -120 -107 -44 -38
-82 -72 -85 -75 -6 -6 -196 -177 -250 -224 -51 -45 -214 -190 -220 -196 -3 -3
-41 -36 -85 -75 -44 -38 -87 -77 -95 -85 -8 -8 -25 -23 -37 -34 l-22 -18 -1
651 c0 358 -4 661 -9 673 -15 38 -57 70 -103 78 -24 4 -476 6 -1005 6 l-962
-1 -9 21 c-10 20 -14 20 -417 20 -224 -1 -409 2 -411 5 -2 4 44 49 102 100 58
52 116 103 128 114 48 43 186 166 276 246 52 46 97 86 100 89 3 3 84 75 180
160 96 85 177 157 180 160 3 3 66 59 140 125 74 66 137 122 140 125 5 5 139
124 199 176 18 16 45 40 60 54 15 14 58 52 96 85 37 33 89 79 114 102 25 23
57 51 71 63 106 92 169 154 164 162 -5 8 -152 -115 -260 -220 -13 -12 -30 -9
-99 23 -51 24 -255 95 -334 116 -157 42 -177 47 -231 58 -102 21 -117 23 -245
40 -145 20 -188 23 -383 25 -106 1 -194 1 -195 0z m443 -28 c93 -10 268 -36
315 -46 22 -5 54 -11 70 -14 169 -31 615 -180 615 -205 0 -4 -28 -32 -62 -62
-34 -30 -87 -76 -118 -104 -31 -27 -89 -79 -129 -115 -40 -36 -79 -69 -85 -75
-148 -132 -192 -171 -196 -175 -3 -3 -66 -59 -140 -125 -74 -66 -137 -122
-140 -125 -3 -3 -25 -23 -50 -44 -25 -22 -81 -72 -125 -111 -44 -40 -168 -150
-275 -245 -107 -95 -215 -191 -240 -214 -25 -23 -76 -69 -114 -101 l-69 -60
-976 0 c-936 0 -977 -1 -1007 -19 -67 -40 -64 4 -64 -945 l0 -859 -46 -41
c-26 -23 -83 -74 -127 -114 -45 -39 -108 -96 -141 -126 -34 -30 -79 -70 -101
-90 -22 -20 -96 -86 -165 -146 -69 -61 -128 -114 -132 -120 -9 -12 -13 2 -32
95 -15 77 -17 86 -35 205 -40 266 -48 684 -16 920 21 158 29 206 51 315 33
163 114 449 154 545 5 11 32 76 61 145 43 104 100 220 157 326 137 251 360
550 558 748 296 295 589 506 946 679 65 31 120 57 124 57 3 0 20 6 37 14 155
69 490 169 642 191 22 3 65 10 95 15 86 14 119 18 210 26 47 3 86 7 87 8 6 5
406 -2 463 -8z"/>
<path d="M6095 6834 c-295 -45 -513 -163 -560 -303 -26 -79 -10 -151 43 -198
28 -24 125 -55 130 -41 2 4 -3 28 -11 52 -20 58 -16 200 6 243 36 69 102 107
224 128 76 13 343 21 343 10 0 -4 -19 -39 -43 -78 -24 -40 -54 -92 -68 -117
-13 -25 -26 -47 -29 -50 -6 -6 -31 -54 -127 -242 -72 -142 -77 -148 -107 -149
-163 -4 -305 -47 -342 -104 -18 -27 -13 -57 8 -50 14 4 66 10 188 20 41 4 80
8 87 10 30 10 19 -25 -58 -182 -157 -325 -202 -448 -202 -554 1 -105 43 -153
147 -165 54 -7 56 -6 57 17 6 107 41 252 102 419 38 105 178 463 184 469 3 4
71 7 273 11 133 3 217 17 257 41 19 12 32 23 30 25 -4 4 -68 11 -192 19 -44 3
-109 8 -145 11 -36 4 -85 8 -110 9 -25 2 -50 3 -57 4 -11 1 -7 14 57 156 10
22 41 94 70 160 29 66 75 164 102 218 l49 98 67 -6 c37 -3 81 -8 97 -10 165
-24 314 -24 383 -1 l52 18 0 48 0 48 -61 1 c-64 0 -237 10 -304 17 -111 12
-456 11 -540 -2z"/>
</g>
</svg>
