<svg width="478" height="277" viewBox="0 0 478 277" fill="none" xmlns="http://www.w3.org/2000/svg">
<path id="screen" d="M465.277 4.03454H281.129V3.0879C281.129 2.35071 280.831 1.64371 280.3 1.12245C279.769 0.601178 279.049 0.308319 278.298 0.308319H200.461C199.71 0.308331 198.99 0.60118 198.459 1.12245C197.928 1.64371 197.63 2.35072 197.63 3.0879V4.03454H12.7223C9.4187 4.03454 6.25039 5.32295 3.9144 7.61633C1.5784 9.90972 0.266057 13.0202 0.266052 16.2635V263.819C0.266052 267.063 1.5784 270.173 3.9144 272.467C6.25039 274.76 9.41869 276.048 12.7223 276.048H465.277C468.581 276.048 471.749 274.76 474.085 272.467C476.421 270.173 477.734 267.063 477.734 263.819V16.2635C477.734 13.0202 476.421 9.90972 474.085 7.61633C471.749 5.32295 468.581 4.03454 465.277 4.03454Z" fill="#1F4A75"/>
</svg>
