<svg width="260" height="260" viewBox="0 0 260 260" fill="none" xmlns="http://www.w3.org/2000/svg">
<path d="M81.0356 253.981C80.9776 253.91 80.9442 253.821 80.9408 253.727C80.9374 253.634 80.9641 253.542 81.0168 253.467C81.0695 253.392 81.1449 253.337 81.231 253.312C81.317 253.287 81.4086 253.293 81.4909 253.329C124.756 272.265 173.797 264.296 209.478 232.53C245.715 200.269 261.104 150.678 249.638 103.11C249.625 103.057 249.623 103.002 249.63 102.948C249.638 102.894 249.656 102.842 249.683 102.796C249.709 102.749 249.745 102.708 249.786 102.676C249.828 102.643 249.876 102.62 249.926 102.606C249.977 102.593 250.029 102.59 250.081 102.598C250.132 102.606 250.182 102.625 250.227 102.653C250.271 102.681 250.31 102.718 250.342 102.761C250.373 102.805 250.395 102.855 250.408 102.907C255.972 126.022 255.266 150.3 248.37 173.019C241.231 196.433 227.931 217.274 209.993 233.161C192.477 248.763 171.163 258.98 148.422 262.676C125.682 266.371 102.405 263.401 81.1839 254.094C81.1266 254.069 81.0758 254.03 81.0356 253.981Z" fill="#F2AA4C"/>
<path d="M71.8662 261.341C71.8324 261.3 71.8067 261.252 71.7906 261.2C71.7746 261.148 71.7685 261.093 71.7726 261.039C71.7768 260.985 71.7911 260.932 71.8149 260.883C71.8386 260.835 71.8712 260.792 71.9109 260.757L259.346 93.8873C259.426 93.816 259.53 93.7809 259.635 93.7896C259.74 93.7984 259.837 93.8504 259.905 93.9341C259.973 94.0178 260.007 94.1264 259.999 94.236C259.99 94.3457 259.941 94.4473 259.86 94.5186L72.4255 261.388C72.3859 261.423 72.3399 261.45 72.2903 261.467C72.2408 261.484 72.1885 261.49 72.1366 261.486C72.0846 261.481 72.034 261.466 71.9876 261.442C71.9412 261.417 71.9 261.383 71.8662 261.341Z" fill="#E6E6E6"/>
<path d="M0.0947709 173.289C0.0609709 173.247 0.0353202 173.199 0.0192756 173.148C0.0032311 173.096 -0.00289236 173.041 0.00126274 172.987C0.00541783 172.933 0.0197675 172.88 0.0434893 172.831C0.067211 172.783 0.099842 172.74 0.139517 172.704L187.575 5.83512C187.655 5.76394 187.758 5.72891 187.863 5.73773C187.968 5.74655 188.065 5.79849 188.134 5.88215C188.202 5.96582 188.235 6.07435 188.227 6.18391C188.219 6.29346 188.169 6.39508 188.089 6.46643L0.654095 173.336C0.614438 173.371 0.56851 173.398 0.518934 173.414C0.469358 173.431 0.417106 173.438 0.365164 173.433C0.313222 173.429 0.262612 173.414 0.216217 173.389C0.169822 173.364 0.128551 173.33 0.0947709 173.289Z" fill="#F2AA4C"/>
<path d="M71.8662 261.341C71.8324 261.3 71.8067 261.252 71.7906 261.2C71.7746 261.148 71.7685 261.093 71.7726 261.039C71.7768 260.985 71.7911 260.932 71.8149 260.883C71.8386 260.835 71.8712 260.792 71.9109 260.757L259.346 93.8873C259.426 93.816 259.53 93.7809 259.635 93.7896C259.74 93.7984 259.837 93.8504 259.905 93.9341C259.973 94.0178 260.007 94.1264 259.999 94.236C259.99 94.3457 259.941 94.4473 259.86 94.5186L72.4255 261.388C72.3859 261.423 72.3399 261.45 72.2903 261.467C72.2408 261.484 72.1885 261.49 72.1366 261.486C72.0846 261.481 72.034 261.466 71.9876 261.442C71.9412 261.417 71.9 261.383 71.8662 261.341Z" fill="#F2AA4C"/>
<path d="M219.14 72.9822H146.596V72.5852C146.596 72.2761 146.479 71.9796 146.27 71.761C146.061 71.5424 145.777 71.4196 145.481 71.4196H114.818C114.522 71.4196 114.238 71.5424 114.029 71.761C113.82 71.9796 113.703 72.2761 113.703 72.5852V72.9822H40.8603C39.5589 72.9822 38.3108 73.5225 37.3905 74.4843C36.4703 75.446 35.9533 76.7504 35.9533 78.1105V181.924C35.9533 183.284 36.4703 184.589 37.3905 185.551C38.3108 186.512 39.5589 187.053 40.8603 187.053H219.14C220.441 187.053 221.689 186.512 222.609 185.551C223.53 184.589 224.047 183.284 224.047 181.924V78.1105C224.047 76.7504 223.53 75.446 222.609 74.4843C221.689 73.5225 220.441 72.9822 219.14 72.9822Z" fill="#1F4A75"/>
<path d="M227.314 180.056H210.241V178.213C210.241 178.112 210.132 178.03 209.997 178.03H204.144C204.009 178.03 203.9 178.112 203.9 178.213V180.056H200.241V178.213C200.241 178.112 200.132 178.03 199.998 178.03H194.144C194.009 178.03 193.9 178.112 193.9 178.213V180.056H190.242V178.213C190.242 178.112 190.133 178.03 189.998 178.03H184.144C184.01 178.03 183.9 178.112 183.9 178.213V180.056H180.242V178.213C180.242 178.112 180.133 178.03 179.998 178.03H174.145C174.01 178.03 173.901 178.112 173.901 178.213V180.056H170.242V178.213C170.242 178.112 170.133 178.03 169.999 178.03H164.145C164.01 178.03 163.901 178.112 163.901 178.213V180.056H160.243V178.213C160.243 178.112 160.134 178.03 159.999 178.03H154.145C154.011 178.03 153.902 178.112 153.902 178.213V180.056H150.243V178.213C150.243 178.112 150.134 178.03 149.999 178.03H104.147C104.012 178.03 103.903 178.112 103.903 178.213V180.056H100.245V178.213C100.245 178.112 100.136 178.03 100.001 178.03H94.1474C94.0127 178.03 93.9035 178.112 93.9035 178.213V180.056H90.2451V178.213C90.2451 178.112 90.1359 178.03 90.0012 178.03H84.1478C84.0131 178.03 83.9039 178.112 83.9039 178.213V180.056H80.2455V178.213C80.2455 178.112 80.1363 178.03 80.0016 178.03H74.1481C74.0134 178.03 73.9042 178.112 73.9042 178.213V180.056H70.2458V178.213C70.2458 178.112 70.1366 178.03 70.0019 178.03H64.1485C64.0138 178.03 63.9046 178.112 63.9046 178.213V180.056H60.2462V178.213C60.2462 178.112 60.137 178.03 60.0023 178.03H54.1488C54.0141 178.03 53.9049 178.112 53.9049 178.213V180.056H50.2465V178.213C50.2465 178.112 50.1373 178.03 50.0026 178.03H44.1491C44.0144 178.03 43.9052 178.112 43.9052 178.213V180.056H32.6861C29.4533 180.056 26.8326 182.025 26.8326 184.453V186.442C26.8326 188.871 29.4533 190.84 32.6861 190.84H227.314C230.546 190.84 233.167 188.871 233.167 186.442V184.453C233.167 182.025 230.546 180.056 227.314 180.056Z" fill="#153758"/>
<path d="M110.152 125.324H59.7636C59.6584 125.324 59.5574 125.281 59.483 125.203C59.4086 125.125 59.3668 125.02 59.3668 124.91C59.3668 124.8 59.4086 124.694 59.483 124.617C59.5574 124.539 59.6584 124.495 59.7636 124.495H110.152C110.257 124.495 110.358 124.539 110.433 124.617C110.507 124.694 110.549 124.8 110.549 124.91C110.549 125.02 110.507 125.125 110.433 125.203C110.358 125.281 110.257 125.324 110.152 125.324Z" fill="#F2F2F2"/>
<path d="M8.50508 164.998C8.46476 164.948 8.43614 164.89 8.42157 164.827C2.99262 141.391 3.90538 116.84 11.0578 93.9162C18.2103 70.9919 31.3208 50.5976 48.9245 35.0116C66.5282 19.4256 87.9318 9.26185 110.744 5.65592C133.556 2.04999 156.878 5.14388 178.105 14.5919C178.153 14.6132 178.197 14.6442 178.233 14.6831C178.27 14.7219 178.298 14.7679 178.318 14.8184C178.337 14.8689 178.347 14.9229 178.347 14.9774C178.346 15.0318 178.335 15.0856 178.315 15.1357C178.295 15.1858 178.265 15.2312 178.228 15.2694C178.191 15.3075 178.147 15.3376 178.098 15.358C178.05 15.3784 177.998 15.3886 177.946 15.3881C177.894 15.3876 177.843 15.3764 177.795 15.3551C134.367 -3.94407 85.0878 3.92114 49.1885 35.8815C13.5084 67.6467 -1.81689 116.981 9.19315 164.632C9.21411 164.722 9.20522 164.818 9.16789 164.903C9.13056 164.987 9.06698 165.056 8.98743 165.099C8.90788 165.141 8.817 165.154 8.72947 165.136C8.64195 165.117 8.5629 165.069 8.50508 164.998Z" fill="#F2AA4C"/>
<path d="M110.152 134.447H59.7636C59.6584 134.447 59.5574 134.403 59.483 134.325C59.4086 134.248 59.3668 134.142 59.3668 134.032C59.3668 133.922 59.4086 133.817 59.483 133.739C59.5574 133.661 59.6584 133.617 59.7636 133.617H110.152C110.257 133.617 110.358 133.661 110.433 133.739C110.507 133.817 110.549 133.922 110.549 134.032C110.549 134.142 110.507 134.248 110.433 134.325C110.358 134.403 110.257 134.447 110.152 134.447Z" fill="#F2F2F2"/>
<path d="M110.152 143.569H59.7635C59.7113 143.569 59.6596 143.559 59.6113 143.538C59.5631 143.517 59.5192 143.487 59.4822 143.448C59.4453 143.41 59.4159 143.364 59.3959 143.313C59.3759 143.263 59.3656 143.209 59.3656 143.154C59.3656 143.1 59.3759 143.046 59.3959 142.996C59.4159 142.945 59.4453 142.899 59.4822 142.861C59.5192 142.822 59.5631 142.792 59.6113 142.771C59.6596 142.75 59.7113 142.74 59.7635 142.74H110.152C110.204 142.74 110.256 142.75 110.304 142.771C110.352 142.792 110.396 142.822 110.433 142.861C110.47 142.899 110.5 142.945 110.52 142.996C110.54 143.046 110.55 143.1 110.55 143.154C110.55 143.209 110.54 143.263 110.52 143.313C110.5 143.364 110.47 143.41 110.433 143.448C110.396 143.487 110.352 143.517 110.304 143.538C110.256 143.559 110.204 143.569 110.152 143.569Z" fill="#F2F2F2"/>
<path d="M203.512 96.74H141.221C140.563 96.74 140.03 97.2969 140.03 97.9839V160.596C140.03 161.284 140.563 161.84 141.221 161.84H203.512C204.169 161.84 204.702 161.284 204.702 160.596V97.9839C204.702 97.2969 204.169 96.74 203.512 96.74Z" fill="white"/>
<path d="M26.7619 257.538C22.9896 257.538 19.8775 256.925 17.4255 255.7C14.9735 254.475 13.7475 252.785 13.7475 250.629C13.7475 247.934 15.6337 246.096 19.406 245.116C18.903 246.439 18.6515 247.762 18.6515 249.085C18.6515 251.143 19.3431 252.76 20.7263 253.936C22.1094 255.112 24.1528 255.7 26.8562 255.7C32.3889 255.7 36.6642 253.569 39.682 249.306C42.7627 245.092 45.0576 240.289 46.5665 234.899C46.7551 234.262 47.2581 232.327 48.0754 229.092C48.3897 227.867 48.7355 226.495 49.1128 224.976C49.5529 223.408 50.0244 221.693 50.5274 219.831C47.8239 223.898 44.8061 227.059 41.4739 229.313C38.1417 231.567 34.338 232.694 30.0627 232.694C26.479 232.694 23.8698 231.935 22.2352 230.416C20.6005 228.847 19.7832 226.691 19.7832 223.947C19.7832 222.183 20.0661 220.248 20.632 218.141C21.1978 216.034 22.0466 213.461 23.1783 210.423C24.2471 207.434 25.0015 205.082 25.4416 203.367C25.9446 201.652 26.1961 200.084 26.1961 198.662C26.1961 196.947 25.756 195.575 24.8758 194.546C24.0585 193.468 22.7067 192.929 20.8206 192.929C18.6829 192.929 16.8282 193.615 15.2564 194.987C13.7475 196.359 12.5844 198.05 11.7671 200.059C11.0126 202.019 10.6354 203.881 10.6354 205.645C10.6354 207.115 10.8869 208.316 11.3898 209.247C9.12646 209.247 7.46036 208.781 6.39155 207.85C5.3856 206.919 4.88263 205.694 4.88263 204.175C4.88263 202.117 5.69996 200.059 7.33462 198.001C9.03215 195.943 11.2641 194.252 14.0304 192.929C16.7968 191.557 19.7518 190.871 22.8953 190.871C26.2275 190.871 28.6795 191.606 30.2513 193.076C31.886 194.546 32.7033 196.286 32.7033 198.295C32.7033 199.422 32.4832 200.745 32.0431 202.264C31.603 203.734 30.9115 205.792 29.9684 208.438C28.7738 211.77 27.8622 214.515 27.2335 216.671C26.6676 218.827 26.3847 220.836 26.3847 222.698C26.3847 227.402 28.5852 229.754 32.9862 229.754C36.9471 229.754 40.6251 227.99 44.0202 224.462C47.4152 220.934 50.4016 216.597 52.9794 211.452C54.9284 205.229 56.8145 200.255 58.6378 196.531C60.524 192.758 62.4101 190.871 64.2962 190.871C64.925 190.871 65.7423 191.092 66.7482 191.533C67.7542 191.974 68.6973 192.537 69.5775 193.223C67.3141 196.016 65.5222 198.613 64.2019 201.015C62.9445 203.416 61.6242 206.527 60.241 210.349C58.9207 214.172 56.846 220.566 54.0167 229.533C52.1935 235.218 50.3702 239.946 48.5469 243.719C46.7236 247.493 44.0202 250.727 40.4365 253.422C36.9157 256.166 32.3575 257.538 26.7619 257.538Z" fill="#F2AA4C"/>
<path d="M214.649 72.2046C211.53 72.0383 209.488 71.4287 208.523 70.3758C207.558 69.3229 207.075 67.7435 207.075 65.6376C207.075 63.3101 207.818 60.373 209.303 56.8263C210.788 53.2797 213.089 48.3198 216.208 41.9469C216.653 41.171 217.247 40.0073 217.99 38.4556C216.134 38.5664 213.275 38.8158 209.414 39.2037L205.627 39.6194C205.924 35.9618 210.788 34.0222 220.217 33.8006C225.043 23.8809 229.35 15.984 233.137 10.1098C231.206 9.99897 229.758 9.94355 228.793 9.94355C224.041 9.94355 220.366 10.3038 217.767 11.0242C215.243 11.7446 213.461 12.8252 212.421 14.2661C211.456 15.7069 210.973 17.6465 210.973 20.0849C210.973 22.357 211.456 24.5459 212.421 26.6518C207.521 26.0422 205.07 23.8809 205.07 20.168C205.07 17.3417 206.407 14.8203 209.08 12.6036C211.827 10.3869 215.54 8.66896 220.217 7.44979C224.895 6.1752 230.055 5.5379 235.698 5.5379C238.445 5.5379 242.344 5.75957 247.392 6.20291C248.135 6.25832 249.62 6.36916 251.847 6.53541C254.075 6.70166 256.08 6.78478 257.862 6.78478C260.832 6.78478 263.579 6.5077 266.103 5.95353C263.505 8.17021 261.277 9.69418 259.421 10.5254C257.565 11.3567 255.597 11.7723 253.518 11.7723C252.107 11.7723 249.583 11.5784 245.945 11.1904C244.088 10.9134 241.341 10.6363 237.703 10.3592C235.624 14.1275 232.06 21.969 227.011 33.8837C230.575 34.05 233.916 34.2993 237.035 34.6318C241.712 34.9643 244.868 35.1583 246.501 35.2137C245.685 36.1004 244.682 36.7377 243.494 37.1256C242.381 37.4581 240.599 37.6798 238.148 37.7906C235.772 37.9014 231.503 38.0123 225.34 38.1231L220.44 50.5088C216.728 59.8189 214.797 67.0508 214.649 72.2046Z" fill="#F2AA4C"/>
</svg>
