<svg width="660" height="610" viewBox="0 0 660 610" fill="none" xmlns="http://www.w3.org/2000/svg">
<path d="M205.706 595.647C205.559 595.477 205.474 595.264 205.465 595.042C205.456 594.82 205.524 594.601 205.658 594.421C205.792 594.241 205.983 594.111 206.202 594.052C206.42 593.992 206.653 594.007 206.862 594.093C316.687 639.248 441.178 620.243 531.752 544.494C623.739 467.564 662.801 349.309 633.697 235.877C633.665 235.751 633.658 235.62 633.677 235.491C633.697 235.363 633.742 235.24 633.809 235.128C633.877 235.017 633.967 234.919 634.073 234.842C634.179 234.765 634.3 234.708 634.428 234.677C634.557 234.645 634.69 234.638 634.821 234.657C634.952 234.676 635.077 234.72 635.191 234.787C635.305 234.854 635.404 234.942 635.482 235.046C635.561 235.15 635.618 235.269 635.651 235.395C649.775 290.515 647.984 348.407 630.479 402.584C612.355 458.416 578.595 508.115 533.059 546C488.596 583.204 434.492 607.567 376.765 616.38C319.038 625.193 259.952 618.109 206.082 595.917C205.937 595.857 205.808 595.764 205.706 595.647Z" fill="#F2AA4C"/>
<path d="M182.43 613.198C182.344 613.099 182.279 612.985 182.238 612.861C182.197 612.738 182.182 612.607 182.192 612.478C182.203 612.348 182.239 612.222 182.299 612.107C182.36 611.991 182.442 611.888 182.543 611.804L658.339 213.885C658.543 213.715 658.807 213.631 659.073 213.652C659.339 213.673 659.586 213.797 659.759 213.997C659.932 214.196 660.018 214.455 659.996 214.717C659.975 214.978 659.849 215.221 659.646 215.391L183.849 613.309C183.749 613.394 183.632 613.458 183.506 613.498C183.38 613.538 183.248 613.553 183.116 613.543C182.984 613.532 182.856 613.497 182.738 613.437C182.62 613.378 182.515 613.297 182.43 613.198Z" fill="#E6E6E6"/>
<path d="M0.240572 403.227C0.154772 403.128 0.0896589 403.014 0.0489305 402.89C0.00820203 402.767 -0.00734214 402.637 0.00320541 402.507C0.013753 402.378 0.0501791 402.251 0.110396 402.136C0.170613 402.02 0.253445 401.917 0.354158 401.833L476.151 3.91455C476.354 3.7448 476.618 3.66127 476.884 3.6823C477.15 3.70333 477.397 3.8272 477.57 4.0267C477.743 4.2262 477.828 4.48502 477.807 4.74626C477.786 5.00751 477.66 5.24983 477.457 5.41997L1.6604 403.339C1.55973 403.423 1.44314 403.487 1.31729 403.527C1.19145 403.567 1.05881 403.582 0.926956 403.572C0.795103 403.561 0.666632 403.526 0.54886 403.466C0.431088 403.407 0.326322 403.326 0.240572 403.227Z" fill="#F2AA4C"/>
<path d="M182.43 613.198C182.344 613.099 182.279 612.985 182.238 612.861C182.197 612.738 182.182 612.607 182.192 612.478C182.203 612.348 182.239 612.222 182.299 612.107C182.36 611.991 182.442 611.888 182.543 611.804L658.339 213.885C658.543 213.715 658.807 213.631 659.073 213.652C659.339 213.673 659.586 213.797 659.759 213.997C659.932 214.196 660.018 214.455 659.996 214.717C659.975 214.978 659.849 215.221 659.646 215.391L183.849 613.309C183.749 613.394 183.632 613.458 183.506 613.498C183.38 613.538 183.248 613.553 183.116 613.543C182.984 613.532 182.856 613.497 182.738 613.437C182.62 613.378 182.515 613.297 182.43 613.198Z" fill="#F2AA4C"/>
<path d="M556.277 164.035H372.129V163.088C372.129 162.351 371.831 161.644 371.3 161.122C370.769 160.601 370.049 160.308 369.298 160.308H291.461C290.71 160.308 289.99 160.601 289.459 161.122C288.928 161.644 288.63 162.351 288.63 163.088V164.035H103.722C100.419 164.035 97.2504 165.323 94.9144 167.616C92.5784 169.91 91.2661 173.02 91.2661 176.264V423.819C91.2661 427.063 92.5784 430.173 94.9144 432.467C97.2504 434.76 100.419 436.048 103.722 436.048H556.277C559.581 436.048 562.749 434.76 565.085 432.467C567.421 430.173 568.734 427.063 568.734 423.819V176.264C568.734 173.02 567.421 169.91 565.085 167.616C562.749 165.323 559.581 164.035 556.277 164.035Z" fill="#1F4A75"/>
<path d="M577.027 419.364H533.689V414.97C533.689 414.729 533.412 414.533 533.07 414.533H518.211C517.869 414.533 517.592 414.729 517.592 414.97V419.364H508.305V414.97C508.305 414.729 508.028 414.533 507.686 414.533H492.827C492.485 414.533 492.208 414.729 492.208 414.97V419.364H482.921V414.97C482.921 414.729 482.644 414.533 482.302 414.533H467.443C467.102 414.533 466.824 414.729 466.824 414.97V419.364H457.538V414.97C457.538 414.729 457.26 414.533 456.919 414.533H442.06C441.718 414.533 441.441 414.729 441.441 414.97V419.364H432.154V414.97C432.154 414.729 431.877 414.533 431.535 414.533H416.676C416.334 414.533 416.057 414.729 416.057 414.97V419.364H406.77V414.97C406.77 414.729 406.493 414.533 406.151 414.533H391.292C390.95 414.533 390.673 414.729 390.673 414.97V419.364H381.386V414.97C381.386 414.729 381.109 414.533 380.767 414.533H264.373C264.031 414.533 263.754 414.729 263.754 414.97V419.364H254.468V414.97C254.468 414.729 254.19 414.533 253.849 414.533H238.99C238.648 414.533 238.371 414.729 238.371 414.97V419.364H229.084V414.97C229.084 414.729 228.807 414.533 228.465 414.533H213.606C213.264 414.533 212.987 414.729 212.987 414.97V419.364H203.7V414.97C203.7 414.729 203.423 414.533 203.081 414.533H188.222C187.88 414.533 187.603 414.729 187.603 414.97V419.364H178.316V414.97C178.316 414.729 178.039 414.533 177.697 414.533H162.838C162.496 414.533 162.219 414.729 162.219 414.97V419.364H152.933V414.97C152.933 414.729 152.655 414.533 152.313 414.533H137.455C137.113 414.533 136.836 414.729 136.836 414.97V419.364H127.549V414.97C127.549 414.729 127.272 414.533 126.93 414.533H112.071C111.729 414.533 111.452 414.729 111.452 414.97V419.364H82.9724C74.7662 419.364 68.1136 424.059 68.1136 429.85V434.592C68.1136 440.384 74.7661 445.079 82.9724 445.079H577.027C585.233 445.079 591.886 440.384 591.886 434.592V429.851C591.886 424.059 585.233 419.364 577.027 419.364Z" fill="#153758"/>
<path d="M279.617 288.851H151.708C151.44 288.851 151.184 288.746 150.995 288.561C150.807 288.375 150.7 288.124 150.7 287.862C150.7 287.6 150.807 287.348 150.995 287.163C151.184 286.977 151.44 286.873 151.708 286.873H279.617C279.884 286.873 280.14 286.977 280.329 287.163C280.518 287.348 280.624 287.6 280.624 287.862C280.624 288.124 280.518 288.375 280.329 288.561C280.14 288.746 279.884 288.851 279.617 288.851Z" fill="#F2F2F2"/>
<path d="M21.5898 383.456C21.4874 383.338 21.4148 383.198 21.3778 383.048C7.59664 327.164 9.91363 268.619 28.0699 213.954C46.2262 159.288 79.5065 110.656 124.193 73.4892C168.879 36.3226 223.212 12.086 281.119 3.48721C339.027 -5.11156 398.23 2.26619 452.113 24.7962C452.235 24.847 452.345 24.9208 452.438 25.0135C452.53 25.1061 452.604 25.2158 452.653 25.3362C452.703 25.4566 452.727 25.5854 452.726 25.7152C452.725 25.8451 452.698 25.9734 452.646 26.0929C452.594 26.2124 452.519 26.3207 452.425 26.4116C452.33 26.5026 452.218 26.5744 452.096 26.623C451.973 26.6715 451.842 26.6959 451.71 26.6947C451.578 26.6935 451.447 26.6667 451.325 26.6159C341.085 -19.4051 215.992 -0.649574 124.863 75.5635C34.2905 151.311 -4.61213 268.954 23.3364 382.583C23.3897 382.799 23.3671 383.027 23.2723 383.229C23.1776 383.431 23.0162 383.596 22.8142 383.697C22.6123 383.798 22.3816 383.829 22.1594 383.785C21.9372 383.742 21.7366 383.626 21.5898 383.456Z" fill="#F2AA4C"/>
<path d="M279.617 310.604H151.708C151.44 310.604 151.184 310.5 150.995 310.314C150.807 310.129 150.7 309.877 150.7 309.615C150.7 309.353 150.807 309.101 150.995 308.916C151.184 308.73 151.44 308.626 151.708 308.626H279.617C279.884 308.626 280.14 308.73 280.329 308.916C280.518 309.101 280.624 309.353 280.624 309.615C280.624 309.877 280.518 310.129 280.329 310.314C280.14 310.5 279.884 310.604 279.617 310.604Z" fill="#F2F2F2"/>
<path d="M279.617 332.357H151.708C151.575 332.358 151.444 332.332 151.321 332.283C151.199 332.233 151.087 332.16 150.993 332.069C150.9 331.977 150.825 331.868 150.774 331.747C150.723 331.627 150.697 331.498 150.697 331.368C150.697 331.238 150.723 331.109 150.774 330.989C150.825 330.869 150.9 330.76 150.993 330.668C151.087 330.576 151.199 330.504 151.321 330.454C151.444 330.405 151.575 330.379 151.708 330.38H279.617C279.749 330.379 279.88 330.405 280.003 330.454C280.126 330.504 280.237 330.576 280.331 330.668C280.425 330.76 280.499 330.869 280.55 330.989C280.601 331.109 280.627 331.238 280.627 331.368C280.627 331.498 280.601 331.627 280.55 331.747C280.499 331.868 280.425 331.977 280.331 332.069C280.237 332.16 280.126 332.233 280.003 332.283C279.88 332.332 279.749 332.358 279.617 332.357Z" fill="#F2F2F2"/>
<path d="M516.607 220.688H358.483C356.814 220.688 355.461 222.016 355.461 223.654V372.961C355.461 374.599 356.814 375.927 358.483 375.927H516.607C518.275 375.927 519.628 374.599 519.628 372.961V223.654C519.628 222.016 518.275 220.688 516.607 220.688Z" fill="white"/>
<path d="M67.9341 604.129C58.3583 604.129 50.4582 602.668 44.234 599.747C38.0097 596.826 34.8975 592.794 34.8975 587.653C34.8975 581.226 39.6854 576.844 49.2613 574.507C47.9845 577.662 47.3461 580.817 47.3461 583.972C47.3461 588.88 49.1017 592.736 52.6128 595.54C56.1239 598.345 61.3108 599.747 68.1735 599.747C82.2181 599.747 93.0707 594.664 100.731 584.498C108.552 574.449 114.377 562.998 118.207 550.144C118.686 548.625 119.963 544.01 122.038 536.297C122.836 533.376 123.713 530.104 124.671 526.482C125.788 522.743 126.985 518.653 128.262 514.213C121.399 523.911 113.738 531.448 105.28 536.823C96.8212 542.198 87.1656 544.886 76.313 544.886C67.2159 544.886 60.5927 543.075 56.4431 539.452C52.2936 535.713 50.2188 530.572 50.2188 524.028C50.2188 519.822 50.937 515.206 52.3734 510.181C53.8098 505.157 55.9643 499.022 58.8371 491.778C61.5502 484.65 63.4654 479.041 64.5826 474.951C65.8594 470.861 66.4977 467.122 66.4977 463.734C66.4977 459.644 65.3806 456.372 63.1462 453.918C61.0714 451.348 57.6401 450.062 52.8522 450.062C47.4259 450.062 42.7178 451.698 38.7279 454.97C34.8975 458.242 31.945 462.273 29.8702 467.064C27.9551 471.738 26.9975 476.178 26.9975 480.385C26.9975 483.89 27.6359 486.753 28.9126 488.973C23.1671 488.973 18.9378 487.863 16.2247 485.643C13.6711 483.423 12.3943 480.502 12.3943 476.879C12.3943 471.972 14.4691 467.064 18.6186 462.156C22.9278 457.248 28.5934 453.217 35.6157 450.062C42.638 446.79 50.1391 445.155 58.1189 445.155C66.5775 445.155 72.8018 446.907 76.7918 450.413C80.9413 453.918 83.016 458.066 83.016 462.857C83.016 465.545 82.4575 468.7 81.3403 472.322C80.2231 475.828 78.4675 480.735 76.0736 487.045C73.0412 494.991 70.7271 501.535 69.1311 506.676C67.6947 511.817 66.9765 516.608 66.9765 521.049C66.9765 532.266 72.5624 537.875 83.7342 537.875C93.7888 537.875 103.125 533.668 111.744 525.255C120.362 516.842 127.943 506.501 134.486 494.231C139.434 479.392 144.222 467.531 148.85 458.651C153.638 449.653 158.426 445.155 163.214 445.155C164.81 445.155 166.884 445.68 169.438 446.732C171.991 447.784 174.385 449.127 176.62 450.763C170.874 457.424 166.326 463.617 162.974 469.342C159.782 475.068 156.431 482.488 152.92 491.602C149.568 500.717 144.301 515.966 137.119 537.349C132.491 550.904 127.863 562.18 123.234 571.177C118.606 580.175 111.744 587.887 102.646 594.313C93.709 600.857 82.1383 604.129 67.9341 604.129Z" fill="#F2AA4C"/>
<path d="M544.877 162.18C536.961 161.784 531.778 160.33 529.328 157.819C526.877 155.308 525.652 151.542 525.652 146.521C525.652 140.97 527.537 133.966 531.307 125.509C535.076 117.052 540.919 105.224 548.835 90.0272C549.966 88.1771 551.474 85.402 553.359 81.7019C548.647 81.9661 541.39 82.5608 531.589 83.4859L521.977 84.477C522.731 75.7552 535.076 71.13 559.013 70.6014C571.264 46.9468 582.196 28.1157 591.808 14.108C586.908 13.8437 583.233 13.7116 580.782 13.7116C568.72 13.7116 559.39 14.5705 552.793 16.2885C546.385 18.0064 541.862 20.5833 539.223 24.0191C536.773 27.455 535.547 32.0802 535.547 37.8947C535.547 43.3128 536.773 48.5326 539.223 53.5543C526.783 52.1006 520.563 46.9469 520.563 38.0929C520.563 31.3534 523.956 25.3406 530.741 20.0547C537.715 14.7688 547.139 10.6722 559.013 7.7649C570.887 4.72549 583.987 3.20578 598.311 3.20578C605.285 3.20578 615.18 3.73437 627.996 4.79156C629.881 4.92371 633.651 5.188 639.305 5.58445C644.959 5.98089 650.048 6.17911 654.572 6.17911C662.111 6.17911 669.085 5.51837 675.493 4.19689C668.896 9.48282 663.242 13.1169 658.53 15.0991C653.818 17.0813 648.823 18.0725 643.546 18.0725C639.965 18.0725 633.556 17.6099 624.321 16.6849C619.609 16.0242 612.635 15.3634 603.4 14.7027C598.122 23.6888 589.075 42.3877 576.259 70.7996C585.306 71.1961 593.787 71.7907 601.704 72.5836C613.578 73.3765 621.588 73.839 625.735 73.9712C623.661 76.0855 621.117 77.6053 618.101 78.5303C615.274 79.3232 610.751 79.8518 604.531 80.1161C598.499 80.3804 587.662 80.6447 572.018 80.909L559.579 110.444C550.155 132.645 545.254 149.89 544.877 162.18Z" fill="#F2AA4C"/>
</svg>
