<svg width="478" height="401" viewBox="0 0 478 401" fill="none" xmlns="http://www.w3.org/2000/svg">
<path id="Vector" d="M0.429565 400.198C0.343725 400.099 0.278553 399.985 0.2378 399.861C0.197047 399.738 0.1815 399.607 0.192048 399.478C0.202595 399.348 0.239039 399.222 0.299279 399.107C0.359519 398.991 0.442389 398.888 0.543137 398.804L476.339 0.885131C476.543 0.715074 476.807 0.631302 477.073 0.652215C477.339 0.673127 477.586 0.797026 477.759 0.996658C477.932 1.19629 478.018 1.45528 477.996 1.71669C477.975 1.9781 477.849 2.22051 477.646 2.39057L1.84937 400.309C1.74873 400.394 1.63212 400.458 1.50627 400.498C1.38042 400.538 1.24777 400.553 1.11591 400.543C0.984046 400.532 0.855582 400.497 0.737812 400.437C0.620041 400.378 0.515288 400.297 0.429565 400.198Z" fill="#F2AA4C"/>
</svg>
