<svg width="640" height="385" viewBox="0 0 640 385" fill="none" xmlns="http://www.w3.org/2000/svg">
<path d="M434.7 0H348.8C340.8 0 333.1 3 327.2 8.4L228.9 98.4C228.8 98.5 228.7 98.7 228.6 98.8C212 114.4 212.3 139.3 226.5 154.8C239.2 168.7 265.9 172.4 282.6 157.5C282.7 157.4 282.9 157.4 283 157.3L362.9 84.1C369.4 78.2 379.6 78.6 385.5 85.1C391.5 91.6 391 101.7 384.5 107.7L358.4 131.6L504 249.8C506.9 252.2 509.5 254.8 511.9 257.5V64L457.3 9.4C451.4 3.4 443.2 0 434.7 0V0ZM544 64.2V288.1C544 305.8 558.3 320.1 576 320.1H640V64.2H544ZM592 288.1C583.2 288.1 576 280.9 576 272.1C576 263.3 583.2 256.1 592 256.1C600.8 256.1 608 263.3 608 272.1C608 280.9 600.8 288.1 592 288.1ZM0 320H64C81.7 320 96 305.7 96 288V64.2H0V320ZM48 256.1C56.8 256.1 64 263.3 64 272.1C64 280.9 56.8 288.1 48 288.1C39.2 288.1 32 280.9 32 272.1C32 263.2 39.2 256.1 48 256.1ZM483.9 274.7L334.6 153.5L304.6 181C274.9 208.1 229.4 205.5 202.9 176.6C176 147.2 178.1 101.7 207.3 74.9L289.1 0H205.3C196.8 0 188.7 3.4 182.7 9.4L128 64V287.9H146.3L236.8 369.8C264.2 392.1 304.5 387.9 326.8 360.5L327 360.3L344.9 375.8C360.8 388.8 384.3 386.3 397.2 370.4L428.6 331.8L434 336.2C447.7 347.3 467.9 345.3 479 331.5L488.5 319.8C499.7 306 497.6 285.9 483.9 274.7V274.7Z" fill="#00ADB5"/>
</svg>
