<svg width="453" height="308" viewBox="0 0 453 308" fill="none" xmlns="http://www.w3.org/2000/svg">
<path id="Vector" d="M-24.7594 307.227C-24.8452 307.128 -24.9103 307.014 -24.9511 306.89C-24.9918 306.767 -25.0073 306.637 -24.9968 306.507C-24.9862 306.378 -24.9498 306.251 -24.8896 306.136C-24.8294 306.02 -24.7466 305.917 -24.6458 305.833L451.151 -92.0855C451.354 -92.2552 451.618 -92.3387 451.884 -92.3177C452.15 -92.2967 452.397 -92.1728 452.57 -91.9733C452.743 -91.7738 452.828 -91.515 452.807 -91.2537C452.786 -90.9925 452.66 -90.7502 452.457 -90.58L-23.3396 307.339C-23.4403 307.423 -23.5569 307.487 -23.6827 307.527C-23.8086 307.567 -23.9412 307.582 -24.073 307.572C-24.2049 307.561 -24.3334 307.526 -24.4511 307.466C-24.5689 307.407 -24.6737 307.326 -24.7594 307.227Z" fill="#F2AA4C"/>
</svg>
