<svg width="441" height="387" viewBox="0 0 441 387" fill="none" xmlns="http://www.w3.org/2000/svg">
<path id="Vector" d="M0.705877 361.647C0.558588 361.477 0.473767 361.264 0.465093 361.042C0.45642 360.82 0.524412 360.601 0.658094 360.421C0.791776 360.241 0.98331 360.111 1.20172 360.052C1.42012 359.992 1.65262 360.007 1.8616 360.093C111.687 405.248 236.178 386.243 326.752 310.494C418.739 233.564 457.801 115.309 428.697 1.87684C428.665 1.7509 428.658 1.61997 428.677 1.4915C428.697 1.36302 428.742 1.23953 428.809 1.12808C428.877 1.01664 428.967 0.919401 429.073 0.841951C429.179 0.764501 429.3 0.708358 429.428 0.676695C429.557 0.645033 429.69 0.638484 429.821 0.657429C429.952 0.676374 430.077 0.720422 430.191 0.78709C430.305 0.853759 430.404 0.941739 430.482 1.04598C430.561 1.15022 430.618 1.26871 430.651 1.39465C444.775 56.5147 442.984 114.407 425.479 168.584C407.355 224.416 373.595 274.115 328.059 312C283.596 349.204 229.492 373.567 171.765 382.38C114.038 391.193 54.9524 384.109 1.08227 361.917C0.936911 361.857 0.80795 361.764 0.705877 361.647Z" fill="#F2AA4C"/>
</svg>
