<svg width="428" height="288" viewBox="0 0 428 288" fill="none" xmlns="http://www.w3.org/2000/svg">
<path id="Vector" d="M-3.4102 287.456C-3.51256 287.338 -3.58519 287.198 -3.62219 287.048C-17.4034 231.164 -15.0864 172.619 3.06989 117.954C21.2262 63.2885 54.5065 14.6558 99.1929 -22.5108C143.879 -59.6774 198.212 -83.914 256.119 -92.5128C314.027 -101.112 373.23 -93.7338 427.113 -71.2038C427.235 -71.153 427.345 -71.0792 427.438 -70.9865C427.53 -70.8939 427.604 -70.7842 427.653 -70.6638C427.703 -70.5434 427.727 -70.4146 427.726 -70.2848C427.725 -70.1549 427.698 -70.0266 427.646 -69.9071C427.594 -69.7876 427.519 -69.6793 427.425 -69.5884C427.33 -69.4974 427.218 -69.4256 427.096 -69.377C426.973 -69.3285 426.842 -69.3041 426.71 -69.3053C426.578 -69.3065 426.447 -69.3333 426.325 -69.3841C316.085 -115.405 190.992 -96.6496 99.8632 -20.4365C9.29054 55.3114 -29.6121 172.954 -1.66356 286.583C-1.61034 286.799 -1.63292 287.027 -1.72768 287.229C-1.82243 287.431 -1.98384 287.596 -2.18578 287.697C-2.38772 287.798 -2.61841 287.829 -2.84058 287.785C-3.06276 287.742 -3.26344 287.626 -3.4102 287.456Z" fill="#F2AA4C"/>
</svg>
