<svg width="131" height="3" viewBox="0 0 131 3" fill="none" xmlns="http://www.w3.org/2000/svg">
<path id="white" d="M129.617 2.35717H1.70751C1.57499 2.35756 1.44369 2.33227 1.32115 2.28275C1.19861 2.23323 1.08723 2.16047 0.993387 2.06862C0.899544 1.97676 0.825089 1.86762 0.774285 1.74746C0.723482 1.6273 0.697327 1.49849 0.697327 1.36839C0.697327 1.2383 0.723482 1.10949 0.774285 0.989328C0.825089 0.86917 0.899544 0.760024 0.993387 0.668169C1.08723 0.576313 1.19861 0.503552 1.32115 0.454035C1.44369 0.404518 1.57499 0.379224 1.70751 0.379613H129.617C129.749 0.379224 129.88 0.404518 130.003 0.454035C130.126 0.503552 130.237 0.576313 130.331 0.668169C130.425 0.760024 130.499 0.86917 130.55 0.989328C130.601 1.10949 130.627 1.2383 130.627 1.36839C130.627 1.49849 130.601 1.6273 130.55 1.74746C130.499 1.86762 130.425 1.97676 130.331 2.06862C130.237 2.16047 130.126 2.23323 130.003 2.28275C129.88 2.33227 129.749 2.35756 129.617 2.35717Z" fill="#F2F2F2"/>
</svg>
