<svg width="152" height="160" viewBox="0 0 152 160" fill="none" xmlns="http://www.w3.org/2000/svg">
<path id="Y" d="M42.9341 159.129C33.3583 159.129 25.4582 157.668 19.234 154.747C13.0097 151.826 9.89753 147.794 9.89753 142.653C9.89753 136.226 14.6854 131.844 24.2613 129.507C22.9845 132.662 22.3461 135.817 22.3461 138.972C22.3461 143.88 24.1017 147.736 27.6128 150.54C31.1239 153.345 36.3108 154.747 43.1735 154.747C57.2181 154.747 68.0707 149.664 75.7313 139.498C83.5516 129.449 89.3769 117.998 93.2072 105.144C93.686 103.625 94.9628 99.0096 97.0375 91.2975C97.8355 88.3762 98.7133 85.1044 99.6709 81.4821C100.788 77.7429 101.985 73.6531 103.262 69.2128C96.3991 78.9114 88.7385 86.4482 80.2798 91.8233C71.8212 97.1984 62.1656 99.8859 51.313 99.8859C42.2159 99.8859 35.5927 98.0747 31.4431 94.4524C27.2936 90.7132 25.2188 85.5718 25.2188 79.0282C25.2188 74.8216 25.937 70.206 27.3734 65.1815C28.8098 60.1569 30.9643 54.0223 33.8371 46.7776C36.5502 39.6498 38.4654 34.041 39.5826 29.9512C40.8594 25.8615 41.4977 22.1223 41.4977 18.7336C41.4977 14.6439 40.3806 11.3721 38.1462 8.91826C36.0714 6.34756 32.6401 5.06221 27.8522 5.06221C22.4259 5.06221 17.7178 6.69811 13.7279 9.9699C9.89753 13.2417 6.94498 17.273 4.87022 22.0639C2.95506 26.7379 1.99748 31.1782 1.99748 35.3848C1.99748 38.8903 2.63587 41.7531 3.91264 43.9732C-1.83285 43.9732 -6.06217 42.8632 -8.77532 40.643C-11.3289 38.4229 -12.6057 35.5016 -12.6057 31.8793C-12.6057 26.9716 -10.5309 22.0639 -6.38137 17.1562C-2.07225 12.2485 3.59345 8.21716 10.6157 5.06221C17.638 1.79041 25.1391 0.15451 33.1189 0.15451C41.5775 0.15451 47.8018 1.90726 51.7918 5.41275C55.9413 8.91825 58.016 13.0664 58.016 17.8573C58.016 20.5448 57.4575 23.6998 56.3403 27.3221C55.2231 30.8276 53.4675 35.7353 51.0736 42.0452C48.0412 49.991 45.7271 56.5346 44.1311 61.676C42.6947 66.8174 41.9765 71.6082 41.9765 76.0485C41.9765 87.2661 47.5624 92.8749 58.7342 92.8749C68.7888 92.8749 78.1253 88.6683 86.7435 80.2551C95.3617 71.8419 102.943 61.5007 109.486 49.2315C114.434 34.3915 119.222 22.5313 123.85 13.6507C128.638 4.65323 133.426 0.15451 138.214 0.15451C139.81 0.15451 141.884 0.680335 144.438 1.73198C146.991 2.78363 149.385 4.12741 151.62 5.76331C145.874 12.4238 141.326 18.6168 137.974 24.3424C134.782 30.0681 131.431 37.4881 127.92 46.6024C124.568 55.7167 119.301 70.9656 112.119 92.3491C107.491 105.904 102.863 117.18 98.2345 126.177C93.6062 135.175 86.7435 142.887 77.6465 149.313C68.709 155.857 57.1383 159.129 42.9341 159.129Z" fill="#F2AA4C"/>
</svg>
